<svg width="264" height="208" viewBox="0 0 264 208" fill="none" xmlns="http://www.w3.org/2000/svg">
<path d="M105.803 54.6802C105.803 58.4207 107.806 60.3379 111.371 60.3379L111.023 62.4268L103.277 67.2997L94.4017 60.6854V37.016C94.4017 33.623 92.836 31.7956 89.9622 31.534L90.3097 29.9683L98.4897 21.7024C102.754 22.5731 105.799 26.0521 105.799 30.4915V54.6841L105.803 54.6802ZM105.975 12.5579L94.5735 17.6924V6.90025L105.975 1.94148V12.5579Z" fill="white"/>
<path d="M127.907 52.2399C131.389 56.0702 135.044 57.636 139.218 57.636C141.916 57.636 144.438 56.9409 146.965 55.6329L148.359 56.5036C144.442 63.1179 139.394 66.6867 133.478 67.6433C123.904 64.7735 116.771 56.5036 116.771 45.9731C116.771 35.4425 123.994 29.7848 135.048 21.5189C139.659 24.3887 143.665 28.305 146.883 33.2677L127.911 52.2399H127.907ZM136.001 39.3627C134.783 34.7514 131.737 32.2252 126.778 31.7918C125.213 35.708 124.428 39.2768 124.428 42.3223C124.428 44.7588 124.951 47.0234 125.908 49.37L136.001 39.3627Z" fill="white"/>
<path d="M168.545 54.6802C168.545 58.4207 170.548 60.3379 174.113 60.3379L173.766 62.4268L166.019 67.2997L157.144 60.6854V16.2985C157.144 12.9054 155.578 11.0781 152.704 10.8165L153.052 9.25077L168.541 0.984842V54.6802H168.545Z" fill="white"/>
<path d="M132.998 118.773C132.998 130.261 124.033 137.831 113.155 139.92C102.363 136.004 94.269 128.519 94.269 117.989C94.269 107.458 102.016 101.453 115.068 93.796C128.73 101.89 132.994 110.855 132.994 118.773H132.998ZM101.844 111.64C101.844 122.518 113.593 131.135 121.163 131.135C122.905 131.135 124.385 130.698 126.036 129.831C126.384 128.699 126.56 127.48 126.56 126.001C126.56 114.861 116.986 105.724 107.24 105.724C105.846 105.724 104.366 105.9 102.976 106.333C102.191 107.989 101.844 109.727 101.844 111.644V111.64Z" fill="white"/>
<path d="M167.288 80.2199L159.717 86.3109L159.022 85.9634C158.589 84.4836 157.456 83.7886 155.976 83.7886C154.844 83.7886 153.454 84.222 151.627 85.0068C152.669 87.0099 153.368 89.4463 153.368 92.5777V94.8424H163.461L160.677 102.589H153.368V138.792H141.967V102.589H136.485L136.832 100.676C140.487 98.5868 141.444 96.8454 141.444 95.0181C141.444 92.4957 139.53 91.1877 136.485 91.0159L136.832 89.4502C145.45 81.1843 153.192 75.96 160.416 73.6134C161.72 76.573 164.246 78.4862 167.553 79.271L167.292 80.2277L167.288 80.2199Z" fill="white"/>
<path d="M42.5883 147.124L33.0027 153.676C29.0083 151.521 26.2908 147.284 24.7758 141.135C20.7034 144.571 19.1845 147.765 19.1845 151.201V159.427L39.1562 157.67C36.5988 162.063 34.3615 166.456 32.4443 170.852H31.0075C30.7693 168.697 29.0903 167.018 25.9745 166.858L19.1845 166.62V180.758C19.1845 193.299 14.3116 202.409 4.48387 208V205.763C6.63918 203.127 7.75979 197.774 7.75979 189.867V166.221L0.809692 165.901L1.12987 161.028L7.75979 160.47V159.271C7.75979 154.398 6.64309 150.642 4.40578 148.089L29.5706 132.431C32.2062 138.663 36.5988 143.298 42.7523 146.25L42.5922 147.128L42.5883 147.124Z" fill="white"/>
<path d="M61.3302 20.652V29.613L83.0863 27.6997C80.3024 32.4867 77.8659 37.2737 75.777 42.0607H74.2113C73.9497 39.7101 72.1223 37.8828 68.7254 37.7071L61.3302 37.4455V187.173C62.2048 188.766 63.8603 189.574 66.1796 189.574L65.8321 191.663L58.0855 196.536L48.9684 190.215L49.2105 147.882C49.2105 146.988 49.1011 146.199 48.8864 145.519C48.2929 143.634 46.8833 142.591 44.771 142.4L45.1185 140.834L48.8864 138.823V37.0121L41.3155 36.6646L41.663 31.3544L48.8864 30.7453V29.4412C48.8864 24.131 47.6682 20.0429 45.2317 17.2551L72.6416 0.200012C75.5154 6.98611 80.3024 12.0347 87.0026 15.2559L86.8269 16.2126L76.3861 23.3501C72.0325 20.9995 69.0768 16.3883 67.4213 9.68416C62.9818 13.4286 61.3302 16.9076 61.3302 20.652Z" fill="white"/>
<path d="M102.586 176.877C102.586 187.423 94.3587 194.373 84.3709 196.29C74.465 192.694 67.0347 185.826 67.0347 176.158C67.0347 166.491 74.1449 160.981 86.1279 153.949C98.6693 161.38 102.586 169.607 102.586 176.877ZM73.9848 170.329C73.9848 180.313 84.7691 188.223 91.7192 188.223C93.3162 188.223 94.675 187.825 96.1938 187.025C96.514 185.986 96.6741 184.869 96.6741 183.511C96.6741 173.285 87.885 164.898 78.9397 164.898C77.6629 164.898 76.3041 165.058 75.0234 165.456C74.305 166.975 73.9848 168.572 73.9848 170.329Z" fill="white"/>
<path d="M143.248 160.501C146.363 158.822 148.519 156.667 149.799 154.031C150.44 153.871 151.158 153.793 151.955 153.793C157.866 153.793 163.539 158.026 163.539 168.494C163.539 178.962 158.108 186.626 145.567 196.614H144.926C140.534 192.062 137.738 188.387 135.899 185.03C133.021 188.704 129.109 192.538 123.916 196.614H123.198C113.53 186.388 111.453 180.637 110.734 172.25C109.934 163.145 109.696 160.825 104.503 157.951L104.823 154.918H115.529C119.602 159.232 119.922 162.426 120.64 170.575C121.281 177.763 121.757 182.636 128.707 188.149C132.94 184.077 134.939 179.044 134.939 174.327C134.939 167.935 131.264 161.626 125.993 161.626C124.955 161.626 123.756 161.864 122.237 162.266L121.597 160.509C124.713 158.83 126.868 156.675 128.149 154.039C128.789 153.879 129.507 153.801 130.304 153.801C136.215 153.801 141.889 158.034 141.889 168.58C141.889 169.856 141.811 171.215 141.569 172.492C142.529 178.642 144.684 183.675 150.358 188.149C154.59 184.077 156.589 179.044 156.589 174.327C156.589 167.935 152.915 161.626 147.644 161.626C146.605 161.626 145.407 161.864 143.888 162.266L143.248 160.509V160.501Z" fill="white"/>
<path d="M179.915 182.152C183.109 185.666 186.467 187.103 190.301 187.103C192.777 187.103 195.096 186.462 197.411 185.264L198.688 186.064C195.092 192.136 190.461 195.412 185.026 196.29C176.237 193.655 169.689 186.064 169.689 176.397C169.689 166.729 176.319 161.54 186.467 153.949C190.699 156.585 194.374 160.181 197.333 164.734L179.915 182.152ZM187.342 170.329C186.225 166.096 183.425 163.777 178.873 163.379C177.436 166.975 176.717 170.251 176.717 173.046C176.717 175.284 177.198 177.361 178.076 179.516L187.342 170.329Z" fill="white"/>
<path d="M221.877 152.063C218.754 152.829 216.524 154.348 215.193 156.694V0.980942L199.442 9.25077V10.8165C202.312 11.0781 203.791 12.9054 203.791 16.2985V29.9644C202.14 25.439 198.309 22.6512 195.178 21.5228C185.776 27.6998 177.943 32.7483 177.943 45.8012C177.943 57.4641 184.21 63.9886 193.261 67.6433C196.83 64.7734 200.922 62.8602 205.533 62.0754L205.693 156.077L202.698 158.713L202.417 159.974C204.096 160.126 205.221 160.946 205.705 162.43L205.755 192.261L212.667 197.317L220.499 192.444V190.355C217.106 190.355 215.193 188.442 215.193 184.702V162.114C216.645 160.802 217.824 160.185 218.797 160.185C219.847 160.185 220.546 160.814 220.968 162.145L221.315 162.286L227.266 157.385L227.406 156.616C224.747 155.984 222.928 154.445 221.877 152.063ZM203.791 58.245C201.788 58.3348 199.961 58.6823 198.224 59.2914C193.87 56.0702 187.779 51.2832 187.779 40.5809C187.779 37.4455 188.302 34.6616 189.259 31.2685C190.215 31.0928 191.172 31.0069 192.043 31.0069C199.703 31.0069 203.358 37.8828 203.791 43.3648V58.245Z" fill="white"/>
<path d="M240.272 160.911C239.311 160.911 238.355 160.989 237.394 161.149C236.355 163.066 235.875 164.745 235.875 166.26C235.875 170.895 240.03 173.851 247.698 173.851C251.454 173.851 256.327 173.05 260.079 171.535C261.997 175.05 263.113 180.004 263.113 182.48C263.113 189.75 252.809 194.303 243.223 195.9C237.71 194.303 230.284 191.507 226.688 187.751C230.284 186.712 233.478 184.955 236.355 182.796C240.588 189.508 245.863 190.785 250.416 190.785C252.333 190.785 253.449 190.547 254.328 190.145C254.566 189.746 254.648 189.266 254.648 188.466C254.648 183.034 251.052 178.56 238.593 178.56C236.914 178.56 234.997 178.638 231.404 179.837C228.527 175.92 227.09 172.566 227.09 169.611C227.09 162.739 235.157 158.744 247.46 153.871C253.211 156.269 258.006 158.982 261.758 162.18C258.963 162.899 255.929 164.738 252.731 167.451C251.454 163.695 245.703 160.899 240.268 160.899L240.272 160.911Z" fill="white"/>
</svg>
